<svg id="Layer_1" data-name="Layer 1" xmlns="http://www.w3.org/2000/svg" xmlns:xlink="http://www.w3.org/1999/xlink" viewBox="0 0 993 486.98"><defs><style>.cls-1{fill:#00984e;fill-rule:evenodd;}.cls-2{fill:#83c67f;}.cls-3{mask:url(#mask);}.cls-4{fill:none;}</style><mask id="mask" x="400.59" y="79.42" width="440.83" height="295.14" maskUnits="userSpaceOnUse"><g transform="translate(0 0.49)"><g id="mask0_78_1274" data-name="mask0 78 1274"><path class="cls-1" d="M768,144.26V372.45H466.53c-30.62-6.83-53.67-35.87-54.07-70.75v-.94A79.79,79.79,0,0,1,414.9,281c0-.17.07-.33.11-.49s.07-.32.1-.49a.3.3,0,0,1,0-.1s0,0,0,0a73.61,73.61,0,0,1,11.21-23.44,85.15,85.15,0,0,1,6.57-8.17c5.31-5.75,12.44-16,13.53-29a67.11,67.11,0,0,1,26.34-48.24,61.44,61.44,0,0,1,15.34-8.35,40.15,40.15,0,0,0,5.25-2.33,42.67,42.67,0,0,0,18.24-17.95c12-23.44,35.71-37.4,62.79-34.17,11.11,1.36,22.15-1.69,29.39-7,10.17-7.45,21.66-12.12,35.57-12.12a56.38,56.38,0,0,1,19.15,3.27l.52.23a65.66,65.66,0,0,1,15.87,8.65c7.23,5.31,18.24,8.36,29.39,7A60.28,60.28,0,0,1,756,126.81a66.85,66.85,0,0,1,11.07,15.69C767.37,143.1,767.7,143.68,768,144.26Z"/></g></g></mask></defs><rect class="cls-2" width="993" height="486.98"/><g class="cls-3"><rect class="cls-4" x="400.59" y="79.42" width="440.83" height="295.14"/></g><image width="356" height="284" transform="translate(636 202.49)" xlink:href="banner_family.png"/></svg>