<svg id="Layer_1" data-name="Layer 1" xmlns="http://www.w3.org/2000/svg" viewBox="0 0 850 540"><defs><style>.cls-1{fill:#d8f3ff;}.cls-2{fill:#8fe4f7;}.cls-3{fill:#528ce0;}</style></defs><path class="cls-1" d="M641.85,339.07c-12-129.94-145.74-206.77-242.34-201.47S126.68,244.7,134.81,341.17C144,450.46,320.34,294.75,420.46,419.3,530.07,555.67,650.19,429.13,641.85,339.07Z"/><path class="cls-2" d="M303.82,441.66c99.9-1.21,166.74-98.54,168.62-172.59s-65-214.78-139.12-214.5c-84,.33,24.05,144.44-77.15,213.21C145.38,343.06,234.57,442.49,303.82,441.66Z"/><path class="cls-3" d="M520.94,255.83a1.24,1.24,0,1,1-2.46.38ZM473.15,133a1.24,1.24,0,1,1-2,1.45Zm5.67,13a1.24,1.24,0,0,1,.39-1.71,1.26,1.26,0,0,1,1.72.4ZM488,156.73a1.24,1.24,0,1,1-2.18,1.2Zm4.16,13.53a1.24,1.24,0,0,1,.58-1.66,1.26,1.26,0,0,1,1.66.58Zm8,11.68a1.24,1.24,0,0,1-2.29,1Zm2.79,13.88a1.24,1.24,0,1,1,2.33-.86Zm6.85,12.38a1.24,1.24,0,1,1-2.37.75Zm1.51,14.07a1.25,1.25,0,0,1,.88-1.52,1.24,1.24,0,0,1,1.52.88ZM517,235.21a1.24,1.24,0,1,1-2.42.54Zm.3,14.15a1.24,1.24,0,1,1,2.45-.43ZM469,127.36q2.11,2.76,4.16,5.63l-2,1.45q-2-2.83-4.11-5.57Zm11.94,17.29c2.44,3.91,4.8,7.95,7.07,12.08l-2.18,1.2q-3.37-6.15-7-12Zm13.47,24.53q3,6.25,5.75,12.76l-2.29,1q-2.72-6.45-5.7-12.65ZM505.27,195q2.4,6.53,4.52,13.24l-2.37.75q-2.12-6.66-4.48-13.13Zm8.43,26.67c1.2,4.48,2.32,9,3.33,13.58l-2.42.54q-1.51-6.81-3.31-13.48Zm6.08,27.3c.41,2.29.79,4.59,1.16,6.9l-2.46.38q-.54-3.44-1.15-6.85Zm2.38,6.7a2.49,2.49,0,1,1-4.91.77Zm-48-123.36a2.48,2.48,0,1,1-4,2.89Zm3.6,14.35A2.49,2.49,0,0,1,482,144Zm11.33,9.52a2.48,2.48,0,1,1-4.36,2.38Zm2,14.66a2.49,2.49,0,0,1,4.48-2.16Zm10.25,10.66a2.49,2.49,0,1,1-4.58,1.93Zm.48,14.78a2.49,2.49,0,0,1,4.67-1.71Zm9.2,11.59a2.48,2.48,0,1,1-4.74,1.49Zm-.87,14.77a2.49,2.49,0,1,1,4.8-1.29Zm8.15,12.34a2.49,2.49,0,0,1-4.86,1.08Zm-2.14,14.64a2.48,2.48,0,1,1,4.89-.87ZM470,126.6q2.13,2.79,4.18,5.67l-4,2.89c-1.34-1.88-2.71-3.73-4.09-5.54ZM482,144q3.69,5.91,7.11,12.15l-4.36,2.38q-3.36-6.11-7-11.9Zm13.54,24.65q3,6.29,5.77,12.82l-4.58,1.93Q494,177,491,170.8Zm10.92,25.89q2.4,6.56,4.53,13.3l-4.74,1.49q-2.1-6.63-4.46-13.08Zm8.46,26.78q1.82,6.74,3.35,13.63L513.39,236q-1.5-6.78-3.29-13.42Zm6.1,27.4q.62,3.45,1.16,6.92l-4.91.77c-.35-2.28-.74-4.55-1.14-6.82Z"/><path class="cls-3" d="M186.33,282.06l.81.59ZM202,264.46a1,1,0,0,1-1.48-1.35Zm-11.73,10.71a1,1,0,1,1,1.57,1.24Zm-6.82,12.68a1,1,0,0,1-1.65-1.12ZM175,297.63a1,1,0,0,1,1.74,1ZM171,309.9a1,1,0,0,1-1.82-.83Zm-6.6,11.1a1,1,0,0,1,1.89.65Zm-1.55,12.82a1,1,0,0,1-2-.43Zm-4,12.29a1,1,0,0,1,2,.19Zm1.63,12.81a1,1,0,1,1-2,.08Zm-.63,12.9a1,1,0,0,1,2-.35Zm5,11.9a1,1,0,0,1-1.9.62Zm2.84,12.6a1,1,0,0,1,1.81-.85Zm7.91,10.21a1,1,0,1,1-1.69,1.07Zm5.81,11.54a1,1,0,0,1,.15-1.41,1,1,0,0,1,1.41.16Zm26-159.33q-2.78,2.86-5.37,5.72l-1.48-1.35c1.75-1.92,3.55-3.84,5.42-5.76Zm-15.53,17.67q-2.48,3.13-4.74,6.24l-1.61-1.18c1.52-2.09,3.12-4.19,4.78-6.3Zm-4.74,6.24q-1.89,2.61-3.65,5.2l-1.65-1.12q1.77-2.62,3.69-5.26Zm-10.36,16q-3.25,5.7-5.81,11.28l-1.82-.83q2.61-5.67,5.89-11.44Zm-10.52,23a111.11,111.11,0,0,0-3.44,12.17l-2-.43A114.59,114.59,0,0,1,164.37,321Zm-5.42,24.65a94.15,94.15,0,0,0-.36,12.62l-2,.08a96.47,96.47,0,0,1,.37-12.89Zm1,25.17a92.51,92.51,0,0,0,3,12.25l-1.9.62a95,95,0,0,1-3.11-12.52Zm7.69,24a102.62,102.62,0,0,0,6.1,11.06l-1.69,1.07a104.78,104.78,0,0,1-6.22-11.28ZM183,416.82q2,2.46,4.1,4.82L185.59,423c-1.43-1.61-2.83-3.24-4.17-4.91Zm3.35-134.76,1.62,1.18Zm16.45-16.93a2,2,0,0,1-3-2.69Zm-13.25,9.42a2,2,0,1,1,3.14,2.48Zm-5.21,13.86a2,2,0,0,1-3.31-2.24Zm-10.15,8.73a2,2,0,0,1,3.48,2Zm-2.29,13.18a2,2,0,1,1-3.63-1.67Zm-8.46,10.36a2,2,0,1,1,3.78,1.3Zm.37,13.36a2,2,0,1,1-3.9-.87Zm-5.94,12a2,2,0,1,1,4,.37Zm3.63,12.87a2,2,0,0,1-4,.15ZM158.87,372a2,2,0,1,1,3.93-.7Zm6.94,11.42a2,2,0,0,1-3.81,1.22Zm1,13.33a2,2,0,1,1,3.61-1.71Zm9.66,9.25a2,2,0,0,1-3.38,2.14Zm4.18,12.7a2,2,0,1,1,3.12-2.51Zm27.49-159.27c-1.84,1.91-3.63,3.81-5.35,5.7l-3-2.69c1.75-1.93,3.57-3.86,5.44-5.79ZM192.67,277q-2.47,3.12-4.72,6.21l-3.23-2.36q2.29-3.15,4.81-6.33ZM188,283.24q-1.89,2.6-3.63,5.17L181,286.17c1.19-1.76,2.42-3.52,3.71-5.29Zm-10.3,15.88q-3.22,5.65-5.77,11.2l-3.63-1.67q2.61-5.7,5.92-11.51ZM167.2,322A111.36,111.36,0,0,0,163.79,334l-3.9-.87a114.1,114.1,0,0,1,3.53-12.49Zm-5.37,24.41a94,94,0,0,0-.35,12.5l-4,.15a98.41,98.41,0,0,1,.37-13Zm1,24.91a94.13,94.13,0,0,0,3,12.12L162,384.64A94.87,94.87,0,0,1,158.87,372ZM170.41,395a103.52,103.52,0,0,0,6.05,11l-3.38,2.14a106,106,0,0,1-6.28-11.39Zm13.35,21.15q2,2.44,4.06,4.78l-3,2.67q-2.17-2.42-4.21-4.94Z"/></svg>