<svg id="Layer_1" data-name="Layer 1" xmlns="http://www.w3.org/2000/svg" viewBox="0 0 1920 1115"><defs><style>.cls-1{fill:#fff;}</style></defs><path class="cls-1" d="M366.32,607.83a93,93,0,0,0-62.05-148.26c-6.16-62.52-58.7-111.36-122.61-111.36A123.29,123.29,0,0,0,66.23,428.56,95.62,95.62,0,0,0-63,489.76c-4.37-.36-8.77-.61-13.25-.61-85.55,0-154.9,69.61-154.9,155.48S-161.82,800.1-76.27,800.1A153.72,153.72,0,0,0,5.17,776.87a129.05,129.05,0,0,0,188.56,4.84,122.79,122.79,0,0,0,97,47.39c68.05,0,123.21-55.37,123.21-123.67A123.49,123.49,0,0,0,366.32,607.83Z"/><path class="cls-1" d="M323.56,508.62A165.8,165.8,0,0,1,290,408.36c0-84.57,62.95-154.3,144.35-164.64,11-111.72,104.81-199,218.91-199,94.38,0,174.86,59.72,206.1,143.57a169.7,169.7,0,0,1,66.9-13.66c77.55,0,143,51.93,163.86,123,7.8-.66,15.66-1.09,23.65-1.09,152.75,0,276.58,124.38,276.58,277.8s-123.83,277.8-276.58,277.8a274.2,274.2,0,0,1-145.4-41.51,230.29,230.29,0,0,1-336.65,8.66C591.44,870.85,528.9,904,458.61,904c-121.5,0-220-98.93-220-221A220.79,220.79,0,0,1,323.56,508.62Z"/><path class="cls-1" d="M2020.31,740.94a193.72,193.72,0,0,0,51.58-112.27c10.61-98.23-53.78-187.13-147-209.36,1.24-131.17-96.8-244.3-229.35-258.61-109.64-11.84-210.62,47.43-257.43,140.93a198.28,198.28,0,0,0-76-24.27c-90.09-9.73-172.62,42.39-205.78,122.36-9-1.74-18.06-3.23-27.34-4.23-177.44-19.16-336.9,109.8-356.15,288s109,338.25,286.46,357.41a320.37,320.37,0,0,0,174.11-30c43.2,60.6,110.9,103.13,190.51,111.73a268.59,268.59,0,0,0,199.49-59.45c40.32,64.9,108.81,111.26,190.47,120.07,141.14,15.24,268-87.33,283.29-229.1A258,258,0,0,0,2020.31,740.94Z"/><rect class="cls-1" x="-17" y="770" width="1685" height="366"/></svg>