<svg width="123" height="82" viewBox="0 0 123 82" fill="none" xmlns="http://www.w3.org/2000/svg">
<path d="M104.502 36.6149C103.284 36.6149 102.094 36.7394 100.943 36.9637C99.9921 27.5982 92.0512 20.2896 82.3948 20.2896C80.3874 20.2896 78.4578 20.6135 76.6449 21.1976C74.0619 9.08866 63.2656 0 50.3339 0C35.4781 0 23.4361 11.9899 23.4361 26.7815C10.4933 26.7815 0 37.2294 0 50.1163C0 63.0032 10.4933 73.4512 23.4361 73.4512C27.7013 73.4512 31.6967 72.3106 35.1417 70.3284C38.7451 77.2605 46.0103 82 54.3877 82C62.3814 82 69.3575 77.6868 73.1138 71.2752C75.4632 74.7551 79.4504 77.0446 83.9769 77.0446C88.6758 77.0446 92.7825 74.5696 95.0874 70.8683C97.8484 72.4989 101.06 73.4512 104.502 73.4512C114.717 73.4512 123 65.2041 123 55.033C122.997 44.8619 114.717 36.6149 104.502 36.6149Z" fill="white"/>
</svg>
