<svg id="Layer_1" data-name="Layer 1" xmlns="http://www.w3.org/2000/svg" viewBox="0 0 1920 1092"><defs><style>.cls-1{fill:#fff;}</style></defs><path class="cls-1" d="M603.94,374.19A97.91,97.91,0,0,0,538.58,218c-6.49-65.87-61.85-117.32-129.18-117.32a129.88,129.88,0,0,0-121.65,84.65,100.71,100.71,0,0,0-132.12,53.18,98.6,98.6,0,0,0-4,11.3c-4.61-.39-9.25-.64-14-.64-90.12,0-163.2,73.34-163.2,163.8s73.08,163.78,163.2,163.78a161.9,161.9,0,0,0,85.8-24.47,136,136,0,0,0,191.94,11.5q3.47-3.07,6.71-6.37a129.42,129.42,0,0,0,102.14,49.91C595.91,607.32,654,549,654,477A130.13,130.13,0,0,0,603.94,374.19Z"/><path class="cls-1" d="M537.34,472.75A165,165,0,0,1,503.92,373c0-84.18,62.66-153.58,143.68-163.88C658.55,97.85,751.93,11,865.51,11c94,0,174.08,59.43,205.16,142.91a168.86,168.86,0,0,1,66.6-13.6c77.14,0,142.33,51.69,163.1,122.46,7.77-.66,15.59-1.09,23.54-1.09,152,0,275.32,123.81,275.32,276.53S1476,814.73,1323.91,814.73a272.94,272.94,0,0,1-144.73-41.31c-84,94.76-228.84,103.51-323.6,19.55q-5.94-5.26-11.51-10.94C804,833.36,741.74,866.32,671.76,866.32c-120.94,0-219-98.48-219-220A219.74,219.74,0,0,1,537.34,472.75Z"/><path class="cls-1" d="M1885.28,562.43a164.94,164.94,0,0,0,33.42-99.8C1918.7,378.46,1856,309,1775,298.75c-10.9-111.25-104.32-198.07-217.91-198.07-94,0-174.07,59.44-205.16,142.91A168.77,168.77,0,0,0,1285.35,230c-77.15,0-142.34,51.69-163.11,122.45-7.76-.65-15.59-1.08-23.54-1.08-152.05,0-275.31,123.81-275.31,276.53S946.65,904.42,1098.7,904.42a273,273,0,0,0,144.73-41.32c84,94.76,228.84,103.51,323.6,19.55q5.94-5.26,11.52-10.94C1618.62,923,1680.88,956,1750.85,956c120.93,0,219-98.48,219-220A219.75,219.75,0,0,0,1885.28,562.43Z"/><rect class="cls-1" y="596" width="1920" height="754"/><rect class="cls-1" x="-25.45" y="438.89" width="573.97" height="168.32"/></svg>