<svg width="256" height="182" viewBox="0 0 256 182" fill="none" xmlns="http://www.w3.org/2000/svg">
<path d="M63.9962 51.9685C63.9962 51.9685 52.1372 62.5924 48.0711 56.645C48.0711 56.645 46.9823 65.9373 54.4486 66.1479C61.9149 66.3585 64.7869 61.782 64.8601 58.2443C64.9332 54.7066 66.1523 52.3451 66.1523 52.3451L63.9962 51.9685Z" fill="#3D2213"/>
<path d="M31.3712 179.837C31.3694 178.724 43.4788 177.802 58.4184 177.777C73.3579 177.752 85.4704 178.634 85.4722 179.747C85.4741 180.86 73.3647 181.782 58.4251 181.807C43.4855 181.832 31.3731 180.95 31.3712 179.837Z" fill="#46525C" fill-opacity="0.37"/>
<path fill-rule="evenodd" clip-rule="evenodd" d="M46.9175 102.585C46.9175 102.585 51.9474 97.0378 61.1844 99.8901C70.4213 102.742 79.4959 106.005 84.508 103.183C89.52 100.363 77.1987 82.2426 77.1987 82.2426L58.7247 78.0498C58.7265 78.0516 44.2258 96.4898 46.9175 102.585Z" fill="#4E74A3"/>
<path fill-rule="evenodd" clip-rule="evenodd" d="M72.9913 63.4777L64.7717 62.5067L62.5138 62.5942L53.9051 65.6C51.0011 67.0368 49.6249 70.4139 50.694 73.4715L52.9716 82.5157C55.0118 88.7808 55.7543 93.0253 56.0577 100.692C64.2969 101.891 72.7289 102.803 76.6272 97.1913C76.1488 81.8463 78.8048 73.3537 72.9913 63.4777Z" fill="#BFA38D"/>
<path fill-rule="evenodd" clip-rule="evenodd" d="M86.2744 132.69C86.2744 132.69 71.9736 139.355 65.7907 134.651C59.6077 129.948 46.2297 135.244 41.9744 124.388L63.1758 119.037L84.8518 125.095L86.2744 132.69Z" fill="#3D2213"/>
<path fill-rule="evenodd" clip-rule="evenodd" d="M43.9355 160.229L42.795 163.976C42.4808 164.726 42.4202 165.557 42.6218 166.345L42.8271 167.146C42.9181 167.503 42.77 167.88 42.4594 168.079C42.0328 168.353 41.4634 168.197 41.235 167.746L38.7307 158.978C38.7307 158.978 38.5165 156.793 42.8218 156.929L43.9355 160.229Z" fill="#3D2213"/>
<path fill-rule="evenodd" clip-rule="evenodd" d="M43.9365 160.229L60.5434 149.55C63.0084 147.965 64.4649 145.207 64.3846 142.278L69.543 114.737L52.9735 115.367L54.8727 141.25C52.6487 143.313 47.3207 150.851 42.8209 156.927L43.9365 160.229Z" fill="#EEAC8F"/>
<path fill-rule="evenodd" clip-rule="evenodd" d="M79.1953 177.163L87.4327 148.606C88.2181 145.882 88.277 143.001 87.6023 140.247L81.4157 115.006L65.7905 113.091L76.5411 146.085C74.4456 150.721 75.5469 163.71 76.1663 175.44L79.1953 177.163Z" fill="#EEAC8F"/>
<path fill-rule="evenodd" clip-rule="evenodd" d="M79.532 174.7L83.034 176.449C83.7212 176.883 84.5298 177.083 85.3401 177.015L86.1648 176.947C86.5325 176.917 86.8787 177.125 87.0233 177.465C87.2214 177.93 86.9733 178.466 86.4896 178.618L77.4258 179.626C77.4258 179.626 75.2357 179.473 76.0889 175.249L79.532 174.7Z" fill="#3D2213"/>
<path fill-rule="evenodd" clip-rule="evenodd" d="M86.2745 132.69C86.2745 132.69 85.5873 125.258 77.1143 127.912C68.6412 130.566 69.0303 136.121 60.1379 131.009C49.9781 125.166 48.5644 124.037 41.9745 124.388C41.9745 124.388 50.3993 120.827 48.7518 116.165C47.1044 111.503 45.9959 96.9522 53.6122 91.4583C61.2267 85.9643 76.5127 90.4373 76.1665 90.4373C75.8202 90.4373 78.8546 99.3476 79.7488 101.777C80.643 104.206 82.9974 115.974 86.0567 119.976C89.1179 123.978 93.1179 126.527 86.2745 132.69Z" fill="#BFA38D"/>
<path fill-rule="evenodd" clip-rule="evenodd" d="M48.7524 116.165C47.1049 111.503 45.9964 96.9521 53.6127 91.4581C54.1678 91.0565 53.8198 86.4603 54.4481 86.1605C55.0942 85.8517 58.2571 82.264 58.9603 82.0498C58.1643 83.0797 58.4016 89.1217 56.9612 93.5947C54.7675 100.401 53.6627 108.597 54.8871 112.061C55.4155 113.554 60.8773 123.803 66.2732 126.905C75.1656 132.019 74.7765 126.464 83.2495 123.808C85.8145 123.005 87.6637 123.128 88.9988 123.687C90.5802 126.082 90.8355 128.584 86.2768 132.69C86.2768 132.69 85.5896 125.257 77.1166 127.912C68.6435 130.566 69.0326 136.12 60.1402 131.008C49.9804 125.166 48.5667 124.037 41.9768 124.388C41.9732 124.388 50.3998 120.829 48.7524 116.165Z" fill="#A68D7A"/>
<path d="M78.8477 115.844C78.8477 115.844 73.9927 113.975 71.6098 117.152C69.2269 120.329 64.5254 118.564 61.6696 113.445" stroke="#A68D7A" stroke-width="0.535476" stroke-miterlimit="10" stroke-linecap="round" stroke-linejoin="round"/>
<path fill-rule="evenodd" clip-rule="evenodd" d="M164.252 86.1426C164.252 86.1426 164.055 92.9896 168.012 92.3185C171.971 91.6473 171.411 86.0212 169.787 84.8521C168.162 83.6848 164.252 86.1426 164.252 86.1426Z" fill="#EEAC8F"/>
<path d="M3.73933 126.223L10.1133 124.793L6.80224 124.682L3.73933 126.223Z" fill="#FFEED6"/>
<path d="M42.8848 119.727L13.4425 104.5C13.2605 104.402 5.8459 107.679 5.8459 107.679L7.20422 121.205L6.43493 124.19C6.285 124.77 6.52774 125.439 6.97041 125.677L11.9307 128.331L30.078 145.432L37.7478 141.88C37.9834 141.786 38.1798 141.554 38.2654 141.22L43.4203 121.214C43.5702 120.634 43.3293 119.965 42.8848 119.727Z" fill="#70482F"/>
<path d="M29.5956 145.32L1.10464 130.076C0.660194 129.839 -0.00558472 129.339 0.142563 128.759L5.37773 108.259C5.52766 107.679 5.96498 107.515 6.40942 107.754L35.293 123.206C35.7375 123.444 35.9784 124.113 35.8285 124.693L30.6736 144.698C30.5255 145.277 30.04 145.557 29.5956 145.32Z" fill="#9E613C"/>
<path d="M19.6459 129.706C19.1963 128.02 19.9521 126.355 21.3341 125.986C22.7162 125.617 24.201 126.685 24.6507 128.371C25.1003 130.057 24.3445 131.722 22.9625 132.091C21.5804 132.46 20.0956 131.392 19.6459 129.706Z" fill="white"/>
<path d="M24.0883 129.959C23.7671 131.194 22.6336 131.785 21.5555 131.279C20.4774 130.772 19.8652 129.361 20.1865 128.125C20.5078 126.89 21.6412 126.299 22.7193 126.805C23.7974 127.312 24.4096 128.723 24.0883 129.959Z" fill="#FF9F47"/>
<path d="M23.0708 141.828L28.9128 119.469L31.8633 120.966L26.0034 143.397L23.0708 141.828Z" fill="#70482F"/>
<path d="M28.912 119.469L28.9138 119.463C29.0673 118.876 29.601 118.326 30.3132 118.025L35.5573 115.804C36.8871 116.108 37.9205 116.581 38.4453 117.35L33.2708 119.522C32.5551 119.824 32.016 120.374 31.8625 120.964L28.912 119.469Z" fill="#855538"/>
<path d="M28.911 119.469L26.7852 122.678C26.3193 123.381 26.5424 124.133 27.3046 124.417C28.1453 124.731 29.3215 124.358 29.8927 123.597L31.8633 120.968L28.911 119.469Z" fill="#855538"/>
<path d="M20.0097 112.998L18.0998 112.07C17.6447 111.849 17.8089 111.476 18.4622 111.242L18.6532 111.172C19.3064 110.937 20.215 110.926 20.6683 111.146L22.5782 112.074C23.0334 112.295 22.8692 112.668 22.2159 112.902L22.0249 112.972C21.3716 113.207 20.4649 113.22 20.0097 112.998Z" fill="#855538"/>
<path d="M28.662 117.207L26.7522 116.279C26.297 116.058 26.4612 115.684 27.1145 115.451L27.3055 115.381C27.9588 115.145 28.8673 115.135 29.3207 115.354L31.2306 116.282C31.6857 116.504 31.5215 116.877 30.8682 117.111L30.6772 117.18C30.0239 117.416 29.1172 117.428 28.662 117.207Z" fill="#855538"/>
<path d="M29.1485 116.743C28.3149 116.729 27.7616 116.227 27.9204 115.626L28.8504 112.104C29.0092 111.504 29.8196 111.024 30.6549 111.038C31.4885 111.053 32.0418 111.554 31.8829 112.156L30.953 115.677C30.7942 116.277 29.982 116.757 29.1485 116.743Z" fill="#9E613C"/>
<path d="M20.2812 112.295C19.4477 112.281 18.8944 111.779 19.0532 111.178L19.9832 107.656C20.142 107.056 20.9542 106.576 21.7877 106.59C22.6213 106.605 23.1746 107.106 23.0158 107.708L22.0858 111.229C21.9269 111.829 21.1148 112.309 20.2812 112.295Z" fill="#9E613C"/>
<path d="M42.897 119.683L40.8408 118.641C40.8408 118.641 40.5624 121.173 42.9809 122.894L43.4521 121.082C43.5949 120.538 43.3433 119.91 42.897 119.683Z" fill="#C9884A"/>
<path d="M35.3231 142.948L37.7435 141.907C37.9773 141.821 38.17 141.603 38.2504 141.291L38.6895 139.604C37.5007 140.845 36.0388 142.262 35.3231 142.948Z" fill="#C4845C"/>
<path d="M42.1608 121.272C42.2896 121.072 42.3755 120.94 42.5078 120.732C42.1537 120.886 42.0464 121.015 42.1608 121.272Z" fill="#C4845C"/>
<path d="M31.6533 137.282C31.6569 137.289 31.6605 137.297 31.6641 137.304C31.6713 137.297 31.6803 137.289 31.6875 137.282C31.6767 137.284 31.6659 137.284 31.6533 137.282Z" fill="#804917"/>
<path d="M11.584 124.491L3.97488 121.948L4.51393 119.872L12.123 122.417L11.584 124.491Z" fill="white"/>
<path d="M4.5263 132.026L10.2077 110.323L13.1582 111.819L7.49463 133.614L4.5263 132.026Z" fill="#70482F"/>
<path d="M10.2554 110.114L10.2572 110.108C10.4107 109.521 10.9443 108.971 11.6565 108.67L17.4307 106.226C18.7105 106.512 19.4424 107.119 20.0742 107.875L14.6141 110.167C13.8984 110.469 13.3593 111.019 13.2058 111.61L10.2554 110.114Z" fill="#855538"/>
<path d="M10.327 110.014L8.2012 113.223C7.73534 113.926 7.95844 114.678 8.7206 114.962C9.5613 115.276 10.7376 114.903 11.3087 114.142L13.2793 111.513L10.327 110.014Z" fill="#855538"/>
<path d="M19.8667 121.403L14.7476 119.793L15.4473 117.098L20.5664 118.708L19.8667 121.403Z" fill="#5AA4E0"/>
<path d="M35.2854 123.242L33.2292 122.198C32.3564 123.901 31.9494 126.815 35.1408 127.342L35.8423 124.64C35.9815 124.099 35.7317 123.469 35.2854 123.242Z" fill="#C4845C"/>
<path d="M30.6625 144.749L31.2266 142.58C29.2096 142.94 28.0833 143.644 27.4657 144.243L29.5934 145.323C30.0414 145.55 30.5215 145.291 30.6625 144.749Z" fill="#C4845C"/>
<path d="M9.64453 109.414L6.47451 107.806C6.02828 107.579 5.54635 107.838 5.40534 108.381L4.43436 112.115C5.79982 111.908 7.82748 111.272 9.64453 109.414Z" fill="#C4845C"/>
<path d="M1.08767 125.063L0.123807 128.324C-0.211758 128.788 0.189849 129.641 0.659284 129.811L2.3835 130.733C2.56378 129.286 2.33176 127.049 1.08767 125.063Z" fill="#C4845C"/>
<path d="M21.5531 109.111L29.5513 112.802C30.6365 113.304 31.7575 113.057 32.0413 112.254L32.0627 112.193C32.3465 111.392 31.6914 110.325 30.6062 109.825L22.608 106.134C21.5227 105.632 20.4018 105.878 20.118 106.682L20.0966 106.742C19.8128 107.544 20.4678 108.609 21.5531 109.111Z" fill="#9E613C"/>
<path d="M173.849 180.866C157.053 180.866 143.438 179.93 143.438 178.775C143.438 177.619 157.053 176.683 173.849 176.683C190.645 176.683 204.261 177.619 204.261 178.775C204.261 179.93 190.645 180.866 173.849 180.866Z" fill="#46525C" fill-opacity="0.37"/>
<path d="M188.193 176.77L188.538 176.745C189.434 176.679 190.133 175.912 190.094 175.037L190.001 172.945C189.962 172.071 189.198 171.41 188.302 171.476L187.958 171.501C187.062 171.567 186.362 172.335 186.401 173.209L186.494 175.301C186.533 176.174 187.299 176.835 188.193 176.77Z" fill="#3D608A"/>
<path d="M163.483 177.44L163.828 177.433C164.725 177.413 165.463 176.679 165.468 175.805L165.48 173.709C165.486 172.835 164.756 172.135 163.858 172.156L163.513 172.163C162.616 172.183 161.878 172.917 161.873 173.791L161.861 175.887C161.855 176.761 162.585 177.461 163.483 177.44Z" fill="#1D2F45"/>
<path d="M191.357 171.383C190.993 171.583 180.671 175.508 180.671 175.508L164.202 125.368L174.736 123.094L191.357 171.383Z" fill="#2D84CC"/>
<path d="M176.52 122.866L187.129 124.529C190.651 125.083 193.273 127.812 193.405 131.064L194.795 165.386C194.972 169.725 190.733 173.1 186.033 172.363L175.424 170.7C171.902 170.146 169.28 167.417 169.148 164.165L167.757 129.843C167.583 125.504 171.82 122.128 176.52 122.866Z" fill="#2D84CC"/>
<path d="M172.793 122.662L183.392 124.11C186.814 124.647 189.339 127.412 189.436 130.726L190.451 165.716C190.58 170.139 186.421 173.613 181.855 172.897L171.545 171.28C168.124 170.743 165.598 167.978 165.502 164.663L164.486 129.675C164.356 125.248 168.225 121.945 172.793 122.662Z" fill="#206BA8"/>
<path d="M178.143 180.092L178.487 180.074C179.383 180.026 180.099 179.271 180.076 178.396L180.022 176.303C180.001 175.428 179.247 174.751 178.351 174.801L178.007 174.819C177.111 174.867 176.395 175.622 176.418 176.497L176.472 178.591C176.495 179.464 177.247 180.14 178.143 180.092Z" fill="#1D2F45"/>
<path d="M189.016 155.51C188.798 155.076 188.975 154.566 189.409 154.373L191.135 153.611C191.569 153.418 192.104 153.616 192.322 154.05C192.54 154.484 192.363 154.994 191.929 155.187L190.203 155.949C189.769 156.14 189.236 155.944 189.016 155.51Z" fill="#1D2F45"/>
<path d="M188.675 145.058C188.894 144.645 189.43 144.501 189.863 144.736L191.807 145.788C192.241 146.021 192.416 146.552 192.196 146.962C191.977 147.374 191.441 147.519 191.007 147.283L189.064 146.232C188.63 145.996 188.455 145.468 188.675 145.058Z" fill="#1D2F45"/>
<path d="M191.311 145.108C190.815 145.102 190.426 145.495 190.445 145.977L190.799 154.862C190.819 155.346 191.24 155.744 191.734 155.749C192.23 155.755 192.62 155.362 192.6 154.88L192.246 145.995C192.227 145.511 191.806 145.113 191.311 145.108Z" fill="#1D2F45"/>
<path d="M169.909 123.962L180.754 125.2C184.276 125.754 186.887 128.531 187.005 131.849L188.242 166.873C188.399 171.301 184.142 174.759 179.442 174.021L168.833 172.358C165.311 171.805 162.7 169.027 162.582 165.709L161.345 130.685C161.19 126.257 165.209 123.224 169.909 123.962Z" fill="#2D84CC"/>
<path d="M166.872 126.889L177.673 128.113C181.194 128.667 183.816 131.394 183.948 134.644L185.344 168.949C185.521 173.286 181.284 176.658 176.584 175.921L165.974 174.257C162.453 173.704 159.831 170.976 159.699 167.726L158.303 133.422C158.128 129.086 162.172 126.152 166.872 126.889Z" fill="#5AA4E0"/>
<path d="M179.559 169.5L176.413 93.3286C176.327 91.3081 175.836 92.2327 175.133 91.9399C174.431 91.649 173.864 90.6459 173.949 92.6664L176.93 168.763C177.018 170.785 179.645 171.521 179.559 169.5Z" fill="#3D608A"/>
<path d="M166.921 168.29L163.793 91.285C163.708 89.2055 163.062 87.26 162.36 86.9601C161.659 86.6602 161.155 88.1185 161.241 90.198L164.545 168.253C164.632 170.332 167.006 170.37 166.921 168.29Z" fill="#3D608A"/>
<path d="M159.676 166.587L159.723 167.731C159.855 170.982 162.477 173.711 165.998 174.262L176.608 175.926C181.088 176.629 185.147 173.595 185.361 169.552L159.676 166.587Z" fill="#1D2F45"/>
<path d="M179.051 149.506L163.089 147.646C162.019 147.521 161.179 146.459 161.247 145.322C161.311 144.267 162.136 143.532 163.126 143.648L179.089 145.507C180.158 145.632 180.999 146.694 180.931 147.831C180.866 148.886 180.042 149.622 179.051 149.506Z" fill="#1D2F45"/>
<path d="M174.696 88.3776C175.854 88.5703 176.882 89.6484 176.991 90.7872L177.072 91.6225L177.177 92.7113C177.209 93.038 176.964 93.2593 176.631 93.204L173.737 92.7238C173.404 92.6685 173.109 92.3579 173.077 92.0313L173.045 91.6975C173.004 91.2798 172.629 90.8854 172.204 90.8158L165.641 89.727C165.03 89.6252 164.581 90.0304 164.64 90.6319C164.672 90.9586 164.427 91.1799 164.093 91.1246L161.2 90.6444C160.866 90.5891 160.572 90.2785 160.54 89.9519L160.434 88.8631L160.354 88.0277C160.245 86.8889 161.095 86.1214 162.251 86.3142L174.696 88.3776Z" fill="#363844"/>
<path fill-rule="evenodd" clip-rule="evenodd" d="M98.375 165.181L95.7869 170.239L92.74 167.271L93.9555 160.858L98.375 165.181Z" fill="#EEAC8F"/>
<path fill-rule="evenodd" clip-rule="evenodd" d="M143.808 169.411L144.118 174.564L140.05 175.801L137.632 166.857L143.808 169.411Z" fill="#EEAC8F"/>
<path d="M201.798 177.969C201.796 176.856 213.906 175.934 228.845 175.909C243.785 175.884 255.897 176.766 255.899 177.879C255.901 178.992 243.791 179.914 228.852 179.939C213.912 179.964 201.8 179.082 201.798 177.969Z" fill="#46525C" fill-opacity="0.37"/>
<path fill-rule="evenodd" clip-rule="evenodd" d="M217.167 173.402L219.651 176.137C220.108 176.752 220.753 177.204 221.488 177.422L222.238 177.643C222.571 177.741 222.805 178.045 222.816 178.393C222.832 178.871 222.43 179.257 221.952 179.225L213.633 177.018C213.633 177.018 211.758 176.137 213.95 172.711L217.167 173.402Z" fill="#3D2213"/>
<path fill-rule="evenodd" clip-rule="evenodd" d="M217.167 173.402L219.368 166.851H214.322L213.951 172.711L217.167 173.402Z" fill="#EEAC8F"/>
<path fill-rule="evenodd" clip-rule="evenodd" d="M234.871 155.264C235.184 155.353 232.949 159.076 232.949 159.076L231.02 156.411L233.135 150.853L234.871 155.264Z" fill="#EEAC8F"/>
<path fill-rule="evenodd" clip-rule="evenodd" d="M117.609 4.03082C117.629 3.99512 116.345 1.4998 112.429 3.40966C108.513 5.32132 111.414 11.5953 110.259 14.0282C110.259 14.0282 113.888 15.2812 113.934 9.16425C113.98 3.04733 117.609 4.03082 117.609 4.03082Z" fill="#3B2114"/>
<path fill-rule="evenodd" clip-rule="evenodd" d="M101.581 5.31599L100.079 3.3972C99.5832 2.76356 99.6957 1.83718 100.329 1.34097C100.963 0.844764 101.889 0.957214 102.386 1.59086L103.887 3.50965C104.383 4.1433 104.27 5.06967 103.637 5.56588C103.001 6.06388 102.077 5.95143 101.581 5.31599Z" fill="#EEAC8F"/>
<path fill-rule="evenodd" clip-rule="evenodd" d="M101.65 4.92515C101.65 4.92515 104.774 10.146 106.583 14.005C107.231 15.3866 107.572 15.8524 108.452 16.1648C108.909 16.3272 114.576 20.0916 114.816 19.9381C115.233 19.6686 113.468 16.4325 112.993 15.6079C112.286 14.3834 111.071 12.9841 110.764 12.7021C109.952 11.956 103.969 3.97021 103.969 3.97021L101.65 4.92515Z" fill="#EEAC8F"/>
<path fill-rule="evenodd" clip-rule="evenodd" d="M116.576 14.4601C116.442 14.4654 113.681 12.7858 112.31 11.4471C111.823 10.9724 111.068 10.9224 110.52 11.324L109.303 18.5119L113.917 22.4762L116.576 14.4601Z" fill="#FF9F47"/>
<path fill-rule="evenodd" clip-rule="evenodd" d="M232.947 159.076L232.967 162.771C232.894 163.535 233.072 164.301 233.474 164.954L233.883 165.62C234.065 165.916 234.036 166.296 233.811 166.564C233.503 166.93 232.946 166.95 232.614 166.605L227.901 159.403C227.901 159.403 227.096 157.495 231.016 156.411L232.947 159.076Z" fill="#3D2213"/>
<path fill-rule="evenodd" clip-rule="evenodd" d="M232.608 111.917C235.903 120.297 233.285 128.958 233.285 128.958C233.285 128.958 229.82 146.707 229.419 147.389L219.761 168.319C219.298 169.318 218.115 169.759 217.114 169.302L214.224 167.987C213.435 167.628 212.973 166.802 213.067 165.939C213.799 159.216 212.93 155.337 219.521 146.412L220.073 126.768C221.151 114.253 232.608 111.917 232.608 111.917Z" fill="#3B597D"/>
<path fill-rule="evenodd" clip-rule="evenodd" d="M244.76 114.862L247.787 134.41C248.231 136.863 247.628 139.39 246.123 141.377L234.739 156.411L232.358 153.975C231.514 153.109 231.151 151.872 231.432 150.696C232.722 145.261 231.426 141.848 238.939 135.471L232.197 118.278C235.105 107.431 244.76 114.862 244.76 114.862Z" fill="#3B597D"/>
<path d="M119.642 182C101.936 182 87.5816 181.012 87.5816 179.794C87.5816 178.575 101.936 177.588 119.642 177.588C137.349 177.588 151.703 178.575 151.703 179.794C151.703 181.012 137.349 182 119.642 182Z" fill="#46525C" fill-opacity="0.37"/>
<path fill-rule="evenodd" clip-rule="evenodd" d="M121.857 78.3694C125.964 91.7117 122.521 105.133 122.521 105.133C122.521 105.133 117.889 132.756 117.37 133.8L97.7481 167.275L93.6321 164.66C91.8882 163.551 90.9762 161.499 91.3331 159.464C93.0181 149.889 96.5558 144.735 104.745 131.671L105.679 100.9C103.021 82.3569 121.857 78.3694 121.857 78.3694Z" fill="#3B597D"/>
<path fill-rule="evenodd" clip-rule="evenodd" d="M95.786 170.239L96.6285 174.941C96.7052 175.93 97.0997 176.867 97.7548 177.609L98.4223 178.368C98.7204 178.705 98.7686 179.196 98.5401 179.585C98.2278 180.119 97.5227 180.267 97.023 179.903L89.4299 171.771C89.4299 171.771 87.9841 169.518 92.7374 167.273L95.786 170.239Z" fill="#1D2F45"/>
<path fill-rule="evenodd" clip-rule="evenodd" d="M114.444 39.6471C114.444 39.6471 111.37 38.6851 112.336 32.4093C113.302 26.1353 125.252 25.7747 127.738 29.2589C130.224 32.7431 130.854 37.5445 130.854 37.5445L114.444 39.6471Z" fill="#A12A2A"/>
<path fill-rule="evenodd" clip-rule="evenodd" d="M61.5587 52.5432C61.5587 52.5432 59.7774 57.9908 64.2379 59.508C68.6984 61.0269 67.3722 50.8618 67.3722 50.8618L61.5587 52.5432Z" fill="#3D2213"/>
<path fill-rule="evenodd" clip-rule="evenodd" d="M70.2572 62.9619C80.6437 61.8338 93.9913 75.7759 93.9521 84.3845C93.9467 85.3948 92.5402 83.0066 92.2885 84.1079C89.1363 97.9624 74.9301 75.3171 74.9301 75.3171L70.2572 62.9619Z" fill="#3394E4"/>
<path fill-rule="evenodd" clip-rule="evenodd" d="M68.8242 57.2591C68.8242 57.2591 68.1763 60.9717 67.639 64.0453C67.4962 64.8646 66.9215 65.5429 66.1379 65.8195C65.3543 66.0962 64.4815 65.9302 63.855 65.3822C63.6497 65.2037 63.4498 65.0288 63.2606 64.8628C62.4021 64.1132 62.054 62.9351 62.3646 61.8374C63.1642 59.0261 64.6189 53.907 64.6189 53.907L68.8242 57.2591Z" fill="#EEAC8F"/>
<path fill-rule="evenodd" clip-rule="evenodd" d="M67.3603 58.0122C67.3603 58.0122 65.2898 58.7797 64.0868 58.2889C64.0868 58.2889 65.9092 60.3915 67.7852 60.0774L67.3603 58.0122Z" fill="#EEAC8F"/>
<path fill-rule="evenodd" clip-rule="evenodd" d="M62.8124 52.7395C62.5839 51.6596 63.2729 50.5976 64.3528 50.3691C65.5058 50.1246 66.9605 49.8158 68.1118 49.5713C69.1917 49.3428 70.0895 50.08 70.4822 51.1117C70.9462 52.329 71.305 54.9849 71.3318 56.943C71.3461 58.0479 70.716 59.2009 69.6361 59.4312C68.4831 59.6757 64.7954 59.3098 64.0243 57.3196C63.4389 55.8042 63.1497 54.3299 62.8124 52.7395Z" fill="#EEAC8F"/>
<path fill-rule="evenodd" clip-rule="evenodd" d="M60.6003 56.024C60.6003 56.024 59.7989 51.833 61.3767 50.1624C63.4972 47.9151 66.437 46.5961 69.8462 49.1628C69.8462 49.1628 70.6851 55.6724 60.6003 56.024Z" fill="#3D2213"/>
<path d="M62.5181 57.2804C62.0382 56.5108 62.166 55.5647 62.8034 55.1672C63.4409 54.7698 64.3466 55.0715 64.8265 55.8411C65.3063 56.6107 65.1786 57.5568 64.5411 57.9543C63.9037 58.3517 62.9979 58.05 62.5181 57.2804Z" fill="#EEAC8F"/>
<path fill-rule="evenodd" clip-rule="evenodd" d="M68.2773 60.4024L67.9668 62.1802L65.9748 59.9294L68.2773 60.4024Z" fill="#A12A2A"/>
<path fill-rule="evenodd" clip-rule="evenodd" d="M70.444 56.7236L68.5609 57.0842C68.5609 57.0842 68.8429 58.364 69.7283 58.0837C70.6136 57.8035 70.444 56.7236 70.444 56.7236Z" fill="white"/>
<path fill-rule="evenodd" clip-rule="evenodd" d="M102.867 70.9101C102.867 70.9101 107.529 67.4206 104.991 65.143C102.452 62.8655 98.6166 67.1618 98.6969 68.8592C98.7773 70.5567 102.867 70.9101 102.867 70.9101Z" fill="#EEAC8F"/>
<path fill-rule="evenodd" clip-rule="evenodd" d="M102.786 69.8517C102.786 69.8517 97.6277 79.094 94.6862 85.8053C91.6232 92.7897 85.7116 86.373 87.3412 84.7005C88.7138 83.2904 98.6987 68.8611 98.6987 68.8611L102.786 69.8517Z" fill="#EEAC8F"/>
<path d="M42.713 74.4515C42.713 74.4515 36.7103 79.0602 31.5072 85.8643C26.9753 91.7903 25.3546 106.671 25.3546 106.671L29.4564 106.182L35.7839 92.6274L46.6702 81.85C48.9674 79.5761 45.4457 79.4225 43.8196 76.6291L42.713 74.4515Z" fill="#EEAC8F"/>
<path fill-rule="evenodd" clip-rule="evenodd" d="M54.3731 65.5161C54.3731 65.5161 33.5805 70.1569 37.5305 77.1859C41.4806 84.215 49.1736 88.0329 57.1094 80.6201C65.0469 73.2073 54.3731 65.5161 54.3731 65.5161Z" fill="#3394E4"/>
<path fill-rule="evenodd" clip-rule="evenodd" d="M57.5049 64.3453C57.5049 64.3453 57.5959 64.5453 57.7476 64.9076C58.8614 67.5671 63.2113 78.9888 58.1957 84.6292C52.4946 91.0371 46.6722 94.3106 46.9203 102.585C46.9203 102.585 39.1398 102.716 37.3674 96.54C37.3674 96.54 47.3237 92.34 48.5571 84.6399C49.7905 76.938 53.9101 65.6001 53.9101 65.6001" fill="#3394E4"/>
<path fill-rule="evenodd" clip-rule="evenodd" d="M81.6043 84.5898C81.4972 84.2864 81.4115 84.0365 81.3473 83.8419C81.3455 83.8526 81.3455 83.8598 81.3455 83.8598L81.2098 83.4171C81.2098 83.4171 81.258 83.5724 81.3473 83.8419C81.3901 83.4867 82.1433 77.0931 80.4744 72.2649C78.7573 67.2957 72.9938 63.476 72.9938 63.476C74.2343 65.8642 74.4146 72.272 74.5806 79.5759C74.7484 86.8798 84.5084 103.182 84.5084 103.182C88.6476 104.108 90.9287 97.5769 90.9287 97.5769C86.1344 96.1989 82.7199 87.733 81.6043 84.5898Z" fill="#3394E4"/>
<path d="M47.9347 83.8972L52.9004 79.0708" stroke="#4E74A3" stroke-width="0.535476" stroke-miterlimit="10" stroke-linecap="round" stroke-linejoin="round"/>
<path d="M82.3594 85.3109L79.8587 77.2377" stroke="#4E74A3" stroke-width="0.535476" stroke-miterlimit="10" stroke-linecap="round" stroke-linejoin="round"/>
<path fill-rule="evenodd" clip-rule="evenodd" d="M41.7793 73.6518C41.7811 74.3819 41.1903 74.9745 40.4602 74.9745C39.7302 74.9762 39.1376 74.3854 39.1376 73.6554C39.1358 72.9254 39.7266 72.3328 40.4567 72.3328C41.1849 72.331 41.7775 72.9218 41.7793 73.6518Z" fill="#FFEBE0"/>
<path fill-rule="evenodd" clip-rule="evenodd" d="M50.6094 69.9232C50.6112 70.6532 50.0203 71.2458 49.2903 71.2458C48.5603 71.2476 47.9677 70.6568 47.9677 69.9268C47.9659 69.1967 48.5567 68.6041 49.2867 68.6041C50.0168 68.6023 50.6094 69.1932 50.6094 69.9232Z" fill="#FFEBE0"/>
<path d="M55.8015 75.5811C55.6319 74.8716 56.0697 74.159 56.7791 73.9895C57.4886 73.82 58.2012 74.2577 58.3708 74.9672C58.5403 75.6767 58.1026 76.3893 57.3931 76.5588C56.6836 76.7283 55.971 76.2906 55.8015 75.5811Z" fill="#FFEBE0"/>
<path d="M76.4339 67.422C75.7128 67.3118 75.2176 66.6378 75.3278 65.9167C75.438 65.1957 76.1119 64.7005 76.833 64.8107C77.5541 64.9209 78.0493 65.5948 77.9391 66.3159C77.8289 67.037 77.155 67.5322 76.4339 67.422Z" fill="#FFEBE0"/>
<path d="M87.6004 78.0847C86.8794 77.9741 86.3846 77.2999 86.4952 76.5789C86.6059 75.8578 87.2801 75.363 88.0011 75.4737C88.7221 75.5844 89.2169 76.2586 89.1063 76.9796C88.9956 77.7006 88.3214 78.1954 87.6004 78.0847Z" fill="#FFEBE0"/>
<path d="M80.45 75.2576C79.729 75.1469 79.2342 74.4727 79.3448 73.7517C79.4555 73.0307 80.1297 72.5359 80.8507 72.6466C81.5718 72.7572 82.0665 73.4314 81.9559 74.1524C81.8452 74.8735 81.171 75.3683 80.45 75.2576Z" fill="#FFEBE0"/>
<path d="M78.0555 85.642C77.3344 85.5313 76.8396 84.8571 76.9503 84.1361C77.061 83.4151 77.7352 82.9203 78.4562 83.031C79.1772 83.1416 79.672 83.8158 79.5613 84.5368C79.4507 85.2579 78.7765 85.7527 78.0555 85.642Z" fill="#FFEBE0"/>
<path fill-rule="evenodd" clip-rule="evenodd" d="M84.4932 94.3695C84.4949 95.0995 83.9041 95.6921 83.1741 95.6921C82.4441 95.6939 81.8515 95.1031 81.8515 94.373C81.8497 93.643 82.4405 93.0504 83.1705 93.0504C83.8988 93.0486 84.4914 93.6394 84.4932 94.3695Z" fill="#FFEBE0"/>
<path fill-rule="evenodd" clip-rule="evenodd" d="M52.4453 86.6819C52.4471 87.4119 51.8563 88.0045 51.1262 88.0045C50.3962 88.0063 49.8036 87.4155 49.8036 86.6854C49.8018 85.9554 50.3926 85.3628 51.1227 85.3628C51.8509 85.361 52.4435 85.9518 52.4453 86.6819Z" fill="#FFEBE0"/>
<path fill-rule="evenodd" clip-rule="evenodd" d="M47.9824 78.0697C47.9842 78.7997 47.3934 79.3923 46.6634 79.3923C45.9333 79.3941 45.3407 78.8033 45.3407 78.0732C45.3407 77.3432 45.9298 76.7506 46.6598 76.7506C47.388 76.7488 47.9806 77.3396 47.9824 78.0697Z" fill="#FFEBE0"/>
<path fill-rule="evenodd" clip-rule="evenodd" d="M43.8203 98.5105C43.8221 99.2405 43.2313 99.8331 42.5012 99.8331C41.7712 99.8349 41.1786 99.2441 41.1786 98.514C41.1769 97.784 41.7677 97.1914 42.4977 97.1914C43.2277 97.1914 43.8185 97.7804 43.8203 98.5105Z" fill="#FFEBE0"/>
<path fill-rule="evenodd" clip-rule="evenodd" d="M126.187 41.6213C141.65 38.0889 142.899 51.4205 157.866 68.0417C158.684 68.9502 158.219 72.5683 157.493 73.7249C151.289 83.6026 129.755 53.8783 129.755 53.8783L126.187 41.6213Z" fill="#FAD0B9"/>
<path fill-rule="evenodd" clip-rule="evenodd" d="M108.686 77.5142L131.972 75.781C140.252 86.7154 141.568 100.97 141.568 100.97C141.568 100.97 146.549 129.254 146.417 130.473L145.175 171.112L140.959 172.85C138.3 160.868 130.458 151.622 134.016 133.873L124.554 104.181C116.65 104.936 108.311 112.093 105.248 99.3045C101.748 84.686 108.686 77.5142 108.686 77.5142Z" fill="#3B597D"/>
<path fill-rule="evenodd" clip-rule="evenodd" d="M132.576 39.5617L122.759 37.6447L120.03 37.5465L109.381 40.3881C105.75 41.8553 103.785 45.8 104.797 49.5822L108.771 64.4363C105.308 73.2021 104.488 82.4444 104.156 91.7117C113.977 93.9054 133.563 96.4239 138.771 90.0143C139.591 71.4761 138.686 51.9937 132.576 39.5617Z" fill="#FAD0B9"/>
<path fill-rule="evenodd" clip-rule="evenodd" d="M144.119 174.564L148.642 176.095C149.545 176.506 150.556 176.611 151.523 176.395L152.508 176.176C152.947 176.078 153.401 176.272 153.631 176.659C153.949 177.19 153.736 177.879 153.178 178.141L142.391 180.867C142.391 180.867 139.721 181.047 140.048 175.799L144.119 174.564Z" fill="#1D2F45"/>
<path fill-rule="evenodd" clip-rule="evenodd" d="M122.971 94.082C122.971 94.082 108.929 74.9512 111.265 55.5437L105.634 73.7588C105.634 73.7588 102.439 81.6482 101.703 90.5139C101.703 90.5157 108.648 95.1136 122.971 94.082Z" fill="#DEB9A4"/>
<path fill-rule="evenodd" clip-rule="evenodd" d="M138.102 135.283C137.656 138.926 135.544 169.832 143.321 171.817L139.562 173.188C137.974 173.766 136.239 172.824 135.857 171.176C133.358 160.387 130.77 150.077 134.016 133.872L124.555 104.179L128.929 103.671C128.928 103.671 138.606 131.157 138.102 135.283Z" fill="#2C4563"/>
<path fill-rule="evenodd" clip-rule="evenodd" d="M108.941 65.0126L107.294 55.3722L106.644 55.5328L106.162 62.0639C106.16 62.0639 106.369 64.0076 108.941 65.0126Z" fill="#9E8781"/>
<path fill-rule="evenodd" clip-rule="evenodd" d="M129.382 32.3181L134.803 40.3003L136.939 53.9121L135.097 54.0942C135.097 54.0942 130.517 48.4627 130.392 42.2815L119.622 34.3601L129.382 32.3181Z" fill="#D65B38"/>
<path fill-rule="evenodd" clip-rule="evenodd" d="M128.862 31.1456L134.801 40.2987C134.801 40.2987 128.404 50.0712 128.279 43.89L119.62 34.3567L128.862 31.1456Z" fill="#A12A2A"/>
<path fill-rule="evenodd" clip-rule="evenodd" d="M118.692 11.6399C118.692 11.6399 115.11 11.9719 114.491 8.60915C113.871 5.24814 117.686 4.50562 117.686 4.50562L118.692 11.6399Z" fill="#3D2213"/>
<path fill-rule="evenodd" clip-rule="evenodd" d="M124.533 14.2513L120.769 13.0161H118.946L113.261 15.0991C111.689 15.6364 111.978 18.2691 112.417 19.6507L114.224 23.3419C112.724 26.5458 112.703 29.5962 112.56 32.984C116.813 33.7855 125.226 33.7997 127.48 31.4579C127.834 24.6824 127.179 18.7957 124.533 14.2513Z" fill="#FF9F47"/>
<path fill-rule="evenodd" clip-rule="evenodd" d="M121.23 9.8766C121.23 9.8766 121.242 12.1149 121.251 13.9694C121.255 14.4639 120.989 14.9208 120.56 15.1653C120.13 15.4099 119.603 15.4045 119.179 15.151C119.039 15.0672 118.906 14.9868 118.777 14.9101C118.195 14.562 117.869 13.9105 117.935 13.2358C118.106 11.508 118.418 8.36121 118.418 8.36121L121.23 9.8766Z" fill="#EEAC8F"/>
<path fill-rule="evenodd" clip-rule="evenodd" d="M121.245 33.4821C121.245 33.4821 115.164 26.4888 116.176 19.3955L113.09 21.234C113.09 21.234 112.226 29.7052 111.908 32.9448C111.908 32.9448 115.644 34.4156 121.245 33.4821Z" fill="#DB893D"/>
<path fill-rule="evenodd" clip-rule="evenodd" d="M121.241 11.7722L121.246 12.8449L119.845 11.7383L121.241 11.7722Z" fill="#A12A2A"/>
<path fill-rule="evenodd" clip-rule="evenodd" d="M139.311 4.24504L140.971 2.4619C141.521 1.87288 141.487 0.941151 140.898 0.391395C140.309 -0.15836 139.377 -0.124447 138.827 0.464577L137.167 2.24771C136.617 2.83674 136.651 3.76847 137.24 4.31822C137.831 4.86798 138.763 4.83407 139.311 4.24504Z" fill="#EEAC8F"/>
<path fill-rule="evenodd" clip-rule="evenodd" d="M139.272 3.84878C139.272 3.84878 135.712 8.78231 133.577 12.4717C132.702 13.9836 129.445 15.8435 128.649 15.4668C127.421 14.8867 128.897 11.299 129.525 10.8135C130.398 10.1388 137.045 2.69751 137.045 2.69751L139.272 3.84878Z" fill="#EEAC8F"/>
<path fill-rule="evenodd" clip-rule="evenodd" d="M115.982 6.87612C115.636 5.99973 116.064 5.00731 116.942 4.66104C117.878 4.29156 119.058 3.82391 119.995 3.45443C120.871 3.10816 121.731 3.60079 122.21 4.41293C122.774 5.37144 123.456 7.55618 123.756 9.20009C123.925 10.1265 123.559 11.1885 122.683 11.5366C121.747 11.906 118.59 12.1238 117.658 10.5584C116.946 9.36609 116.493 8.16484 115.982 6.87612Z" fill="#EEAC8F"/>
<path fill-rule="evenodd" clip-rule="evenodd" d="M114.59 9.9551C114.59 9.9551 113.319 6.54233 114.41 4.91091C115.875 2.71724 118.161 1.18756 121.396 2.8636C121.396 2.8636 121.597 3.15455 121.447 3.55615C121.205 4.20051 119.338 4.84308 118.513 5.91225C117.38 7.38303 118.897 10.0765 114.59 9.9551Z" fill="#3D2213"/>
<path fill-rule="evenodd" clip-rule="evenodd" d="M116.385 10.7424C116.899 11.3225 117.704 11.4475 118.184 11.0226C118.664 10.5978 118.635 9.78212 118.123 9.20381C117.609 8.62371 116.804 8.49876 116.324 8.92358C115.844 9.34839 115.872 10.1641 116.385 10.7424Z" fill="#EEAC8F"/>
<path fill-rule="evenodd" clip-rule="evenodd" d="M122.657 9.16443L121.122 9.7356C121.122 9.7356 121.542 10.7726 122.247 10.4103C122.953 10.048 122.657 9.16443 122.657 9.16443Z" fill="white"/>
<path fill-rule="evenodd" clip-rule="evenodd" d="M123.724 6.55831C123.74 6.91708 123.369 7.16876 123.046 7.01347C121.989 6.51012 120.542 4.90905 118.796 5.08397C116.354 5.32672 121.395 2.86353 121.395 2.86353C121.395 2.86353 123.58 3.17946 123.724 6.55831Z" fill="#3D2213"/>
<path fill-rule="evenodd" clip-rule="evenodd" d="M118.127 35.5386L123.335 39.8724C123.913 40.4935 124.267 41.2896 124.343 42.1339L125.532 55.3191H123.681C123.681 55.3191 119.046 49.6466 118.887 43.8724L114.878 39.3994L118.127 35.5386Z" fill="#EEAC8F"/>
<path fill-rule="evenodd" clip-rule="evenodd" d="M125.518 55.1655L126.867 57.8179C127.09 58.3944 127.496 58.8817 128.02 59.2066L128.556 59.5385C128.795 59.6867 128.911 59.9705 128.845 60.2436C128.756 60.6184 128.361 60.8326 127.997 60.7059L122.002 57.2235C122.002 57.2235 121.159 56.3328 123.062 54.5782L125.518 55.1655Z" fill="#3D2213"/>
<path fill-rule="evenodd" clip-rule="evenodd" d="M136.978 53.9462L138.582 56.454C138.861 57.0056 139.312 57.45 139.867 57.7231L140.433 57.9998C140.685 58.1229 140.829 58.3942 140.792 58.6727C140.74 59.0547 140.369 59.3081 139.994 59.2171L133.684 56.3416C133.684 56.3416 132.758 55.5384 134.479 53.6035L136.978 53.9462Z" fill="#3D2213"/>
<path fill-rule="evenodd" clip-rule="evenodd" d="M207.51 115.251L205.791 116.94C205.221 117.498 204.3 117.489 203.742 116.922C203.183 116.352 203.192 115.431 203.76 114.873L205.478 113.184C206.048 112.626 206.969 112.634 207.528 113.202C208.088 113.771 208.079 114.693 207.51 115.251Z" fill="#EEAC8F"/>
<path fill-rule="evenodd" clip-rule="evenodd" d="M238.707 86.307L235.458 85.7947L233.206 85.7286L226.562 87.1851C223.617 88.1686 222.796 89.8982 223.751 92.4346L224.79 103.755C222.218 109.632 221.839 115.828 221.864 122.041C230.029 123.512 244.131 125.627 248.219 121.331C244.938 102.443 246.532 96.5131 243.308 89.7179C242.441 87.8884 240.706 86.6211 238.707 86.307Z" fill="#F0ED94"/>
<path fill-rule="evenodd" clip-rule="evenodd" d="M235.747 81.3732C235.747 81.3732 235.619 84.6361 235.511 87.3402C235.483 88.0596 235.069 88.7093 234.428 89.0377C233.787 89.3661 233.018 89.3233 232.416 88.9252C232.22 88.7949 232.027 88.6682 231.847 88.5486C231.022 88.0042 230.587 87.0314 230.728 86.0533C231.09 83.5473 231.751 78.9814 231.751 78.9814L235.747 81.3732Z" fill="#EEAC8F"/>
<path fill-rule="evenodd" clip-rule="evenodd" d="M236.497 123.406C236.497 123.406 224.745 106.855 226.373 93.9213L221.616 92.6469C221.616 92.6469 219.835 115.36 219.365 121.268C219.367 121.268 225.877 125.109 236.497 123.406Z" fill="#E5E16F"/>
<path fill-rule="evenodd" clip-rule="evenodd" d="M235.639 84.1362L235.578 85.6981L233.607 83.9952L235.639 84.1362Z" fill="#A12A2A"/>
<path fill-rule="evenodd" clip-rule="evenodd" d="M236.222 72.6488C236.222 72.6488 239.115 73.1379 238.766 76.2686C238.416 79.3994 235.999 78.8693 235.999 78.8693L236.222 72.6488Z" fill="#3D2213"/>
<path fill-rule="evenodd" clip-rule="evenodd" d="M228.948 77.2539C228.589 76.1044 229.228 74.8817 230.378 74.5212C231.604 74.1374 233.152 73.6537 234.378 73.27C235.527 72.9112 236.577 73.6198 237.11 74.6997C237.739 75.9741 238.403 78.8193 238.633 80.9433C238.763 82.141 238.196 83.4583 237.046 83.8188C235.82 84.2026 231.777 84.1848 230.737 82.1018C229.944 80.5167 229.478 78.9442 228.948 77.2539Z" fill="#EEAC8F"/>
<path fill-rule="evenodd" clip-rule="evenodd" d="M226.885 81.0467C226.885 81.0467 225.585 76.579 227.128 74.6013C229.2 71.9453 232.257 70.2086 236.22 72.6468C236.22 72.6468 236.45 73.0377 236.22 73.5339C235.34 75.4313 232.323 80.015 226.885 81.0467Z" fill="#3D2213"/>
<path fill-rule="evenodd" clip-rule="evenodd" d="M229.1 82.2176C229.7 83.0048 230.715 83.2386 231.365 82.7424C232.016 82.2462 232.057 81.2056 231.458 80.4184C230.858 79.6313 229.842 79.3975 229.193 79.8937C228.541 80.3917 228.5 81.4323 229.1 82.2176Z" fill="#EEAC8F"/>
<path fill-rule="evenodd" clip-rule="evenodd" d="M236.28 80.8451L234.272 81.4288C234.272 81.4288 234.709 82.7889 235.642 82.3926C236.576 81.9964 236.28 80.8451 236.28 80.8451Z" fill="white"/>
<path fill-rule="evenodd" clip-rule="evenodd" d="M224.115 88.6235C224.206 88.0595 219.457 92.2629 213.675 96.379C207.742 100.602 205.186 112.652 205.186 112.652L209.179 114.569C209.179 114.569 215.949 102.092 217.574 101.512C219.198 100.932 228.853 93.1215 228.853 93.1215L224.115 88.6235Z" fill="#F0ED94"/>
<path fill-rule="evenodd" clip-rule="evenodd" d="M237.244 115.492L235.887 117.486C235.439 118.145 235.611 119.051 236.271 119.499C236.93 119.947 237.836 119.776 238.284 119.116L239.641 117.122C240.089 116.463 239.918 115.556 239.257 115.108C238.597 114.66 237.692 114.833 237.244 115.492Z" fill="#EEAC8F"/>
<path fill-rule="evenodd" clip-rule="evenodd" d="M241.127 87.3957C241.627 87.2208 253.946 98.8978 252.816 105.373C251.687 111.851 239.951 117.359 239.951 117.359L237.545 114.036C237.545 114.036 245.959 108.019 246.221 106.441C246.482 104.865 242.562 91.4957 242.562 91.4957L241.127 87.3957Z" fill="#F0ED94"/>
<path fill-rule="evenodd" clip-rule="evenodd" d="M122.096 35.9723C122.096 35.9723 117.003 36.0687 116.479 31.2583C115.954 26.4479 121.416 25.7982 121.416 25.7982L122.096 35.9723Z" fill="#3D2213"/>
<path fill-rule="evenodd" clip-rule="evenodd" d="M126.707 31.6437C126.707 31.6437 126.687 35.8151 126.67 39.2707C126.666 40.1917 126.164 41.0378 125.361 41.4858C124.556 41.9338 123.573 41.9124 122.789 41.4322C122.532 41.2752 122.282 41.1217 122.045 40.9753C120.969 40.3149 120.371 39.094 120.506 37.8392C120.858 34.6228 121.499 28.7646 121.499 28.7646L126.707 31.6437Z" fill="#EEAC8F"/>
<path fill-rule="evenodd" clip-rule="evenodd" d="M126.688 35.1777L126.68 37.175L124.09 35.0867L126.688 35.1777Z" fill="#D15747"/>
<path fill-rule="evenodd" clip-rule="evenodd" d="M126.394 23.2258C126.394 23.2258 129.33 23.722 128.975 26.8992C128.62 30.0764 126.166 29.5391 126.166 29.5391L126.394 23.2258Z" fill="#3D2213"/>
<path fill-rule="evenodd" clip-rule="evenodd" d="M119.015 27.9007C118.651 26.7334 119.301 25.4928 120.466 25.1269C121.712 24.7378 123.283 24.247 124.527 23.8561C125.694 23.4919 126.76 24.2113 127.301 25.3072C127.94 26.6013 128.613 29.4893 128.845 31.6455C128.977 32.861 128.4 34.1997 127.235 34.5638C125.989 34.9529 121.887 34.9351 120.829 32.8199C120.025 31.2117 119.551 29.6178 119.015 27.9007Z" fill="#EEAC8F"/>
<path fill-rule="evenodd" clip-rule="evenodd" d="M116.92 31.7508C116.92 31.7508 115.601 27.2153 117.166 25.209C119.269 22.512 122.373 20.7503 126.396 23.226C126.396 23.226 126.63 23.6223 126.396 24.1274C125.502 26.0515 122.439 30.7048 116.92 31.7508Z" fill="#3D2213"/>
<path d="M119.166 32.9436C118.557 32.145 118.599 31.089 119.259 30.5849C119.92 30.0808 120.949 30.3195 121.559 31.1181C122.168 31.9167 122.127 32.9727 121.466 33.4768C120.805 33.9809 119.776 33.7422 119.166 32.9436Z" fill="#EEAC8F"/>
<path fill-rule="evenodd" clip-rule="evenodd" d="M127.427 31.4954L125.388 32.088C125.388 32.088 125.833 33.4677 126.779 33.0679C127.727 32.6663 127.427 31.4954 127.427 31.4954Z" fill="white"/>
<path fill-rule="evenodd" clip-rule="evenodd" d="M117.928 34.3995L124.144 40.5664C124.144 40.5664 119.071 51.0886 118.144 44.977L113.079 38.4567L117.928 34.3995Z" fill="#A12A2A"/>
<path fill-rule="evenodd" clip-rule="evenodd" d="M121.89 13.3948C122.024 13.4287 126.693 11.1707 128.901 10.0962C129.463 9.82313 130.127 10.1765 130.216 10.7959L131.28 18.2283L124.787 20.2453L121.89 13.3948Z" fill="#FF9F47"/>
<path fill-rule="evenodd" clip-rule="evenodd" d="M107.484 41.8837C103.015 46.3478 99.8288 52.6129 99.3111 63.94C99.2165 66.023 99.1737 73.1181 105.467 73.3804L107.55 72.9057C110.526 73.3001 110.604 71.4277 111.416 68.8503C113.016 63.7758 115.916 55.3831 115.813 50.9708C115.431 34.3799 107.484 41.8837 107.484 41.8837Z" fill="#FAD0B9"/>
<path fill-rule="evenodd" clip-rule="evenodd" d="M120.411 57.3875C120.411 57.3875 127.174 56.2969 125.773 52.5343C124.372 48.7717 118.949 50.3781 118.107 52.1934C117.262 54.0069 120.411 57.3875 120.411 57.3875Z" fill="#EEAC8F"/>
<path fill-rule="evenodd" clip-rule="evenodd" d="M25.6768 104.265C25.6768 104.265 20.4952 110.653 24.24 112.099C27.9847 113.547 30.3801 108.424 29.5804 106.589C28.7808 104.754 25.6768 104.265 25.6768 104.265Z" fill="#EEAC8F"/>
<path fill-rule="evenodd" clip-rule="evenodd" d="M122.804 53.7857C122.804 53.7857 117.61 62.6425 114.745 69.186C111.764 75.9955 104.624 68.5327 106.352 67.0262C107.809 65.7554 118.108 52.1953 118.108 52.1953L122.804 53.7857Z" fill="#EEAC8F"/>
<path fill-rule="evenodd" clip-rule="evenodd" d="M169.783 84.8539C168.525 87.0743 165.585 87.4277 163.645 85.5857C160.916 82.994 157.128 79.508 153.899 76.936C147.845 72.1167 155.679 66.7744 158.713 70.6816C159.964 72.2916 169.783 84.8539 169.783 84.8539Z" fill="#EEAC8F"/>
<path d="M138.645 66.919L138.014 60.1917" stroke="#DB9F7F" stroke-width="0.465222" stroke-miterlimit="10" stroke-linecap="round" stroke-linejoin="round"/>
<path d="M111.907 59.6635L112.148 55.2637" stroke="#DB9F7F" stroke-width="0.465222" stroke-miterlimit="10" stroke-linecap="round" stroke-linejoin="round"/>
<path d="M238.652 112.87C238.652 112.87 245.583 108.042 245.904 107.051C246.227 106.059 243.784 95.7885 243.784 95.7885" stroke="#AFC2D4" stroke-width="0.535476" stroke-miterlimit="10" stroke-linecap="round" stroke-linejoin="round"/>
</svg>
