<svg width="76" height="98" viewBox="0 0 76 98" fill="none" xmlns="http://www.w3.org/2000/svg">
<g clip-path="url(#clip0_93_586)">
<path d="M35.3801 96.2891C35.3813 95.6042 27.9278 95.0365 18.7322 95.0211C9.53671 95.0058 2.08134 95.5486 2.0802 96.2335C2.07905 96.9184 9.53257 97.4861 18.7281 97.5014C27.9236 97.5168 35.379 96.974 35.3801 96.2891Z" fill="#CEE0F0"/>
<path fill-rule="evenodd" clip-rule="evenodd" d="M6.7098 92.1697L4.19557 93.4901C3.70381 93.8146 3.11934 93.9706 2.53148 93.9344L1.93232 93.8971C1.66552 93.8801 1.41681 94.0373 1.31732 94.286C1.18053 94.6274 1.3682 95.0118 1.72204 95.1135L8.31059 95.7115C8.31059 95.7115 9.89554 95.5691 9.21611 92.5179L6.7098 92.1697Z" fill="#1D2F45"/>
<path fill-rule="evenodd" clip-rule="evenodd" d="M6.70996 92.1696L6.84675 86.8596L10.4903 88.188L9.21515 92.5178L6.70996 92.1696Z" fill="#E35E4D"/>
<path fill-rule="evenodd" clip-rule="evenodd" d="M12.7401 38.1713C8.1537 43.3558 6.77902 55.832 6.77902 55.832C6.77902 55.832 4.6062 69.5607 4.71699 70.1588L6.17872 87.816C6.24881 88.6605 6.98703 89.2891 7.83151 89.2235L10.2643 89.0347C10.9279 88.9838 11.4796 88.5079 11.639 87.8613C12.8814 82.8136 14.5308 80.2406 12.1218 72.0614L16.897 57.7323C17.2248 56.5171 22.9881 48.6872 23.1011 44.3439C23.282 37.2862 12.7401 38.1713 12.7401 38.1713Z" fill="#3D608A"/>
<path d="M56.739 97.9521C67.3768 97.9521 76.0004 97.3589 76.0004 96.6272C76.0004 95.8954 67.3768 95.3022 56.739 95.3022C46.1012 95.3022 37.4775 95.8954 37.4775 96.6272C37.4775 97.3589 46.1012 97.9521 56.739 97.9521Z" fill="#C1D7EA"/>
<path d="M69.1345 92.8354L69.3391 92.7608C69.8705 92.5663 70.1475 91.9728 69.953 91.4404L69.4872 90.1663C69.2928 89.635 68.6993 89.358 68.1668 89.5524L67.9622 89.6271C67.4309 89.8215 67.1539 90.415 67.3483 90.9475L67.8141 92.2215C68.0097 92.7529 68.6032 93.0299 69.1345 92.8354Z" fill="#3D608A"/>
<path d="M53.199 97.0092L53.4036 96.9346C53.9349 96.7402 54.2119 96.1467 54.0175 95.6142L53.5517 94.3401C53.3573 93.8088 52.7637 93.5318 52.2313 93.7263L52.0267 93.8009C51.4953 93.9953 51.2183 94.5888 51.4128 95.1213L51.8786 96.3954C52.073 96.9278 52.6665 97.2037 53.199 97.0092Z" fill="#1D2F45"/>
<path d="M69.488 89.4349C69.2959 89.6101 63.5405 93.4742 63.5405 93.4742L45.3135 64.382L51.4634 61.5195L69.488 89.4349Z" fill="#DB853B"/>
<path d="M52.531 61.1319L59.3592 60.7215C61.6259 60.5859 63.6856 61.9334 64.2882 63.9491L70.654 85.2149C71.4589 87.9032 69.3788 90.5927 66.3547 90.7747L59.5265 91.1851C57.2599 91.3207 55.2001 89.9732 54.5976 87.9575L48.2317 66.6917C47.4268 64.0034 49.5069 61.3139 52.531 61.1319Z" fill="#DB853B"/>
<path d="M50.1929 61.5149L56.9793 60.9711C59.1815 60.8389 61.187 62.2215 61.7782 64.2812L68.0186 86.0151C68.8077 88.7633 66.7931 91.5025 63.8538 91.6789L57.2189 92.0768C55.0167 92.2091 53.0112 90.8265 52.42 88.7667L46.1796 67.0329C45.3905 64.2858 47.2547 61.6913 50.1929 61.5149Z" fill="#C26E25"/>
<path d="M62.9285 97.0092L63.1331 96.9346C63.6644 96.7402 63.9414 96.1467 63.7469 95.6142L63.2812 94.3401C63.0867 93.8088 62.4932 93.5318 61.9608 93.7263L61.7561 93.8009C61.2248 93.9953 60.9478 94.5888 61.1423 95.1213L61.608 96.3954C61.8025 96.9278 62.396 97.2037 62.9285 97.0092Z" fill="#1D2F45"/>
<path d="M65.4957 79.8314C65.2911 79.5906 65.3182 79.2469 65.5568 79.0671L66.5018 78.3549C66.7392 78.1752 67.1021 78.2261 67.3068 78.4669C67.5114 78.7076 67.4842 79.0513 67.2457 79.2311L66.3006 79.9433C66.0621 80.1219 65.7003 80.0722 65.4957 79.8314Z" fill="#1D2F45"/>
<path d="M63.6062 73.3434C63.6763 73.0563 63.9837 72.8924 64.2901 72.9794L65.6603 73.3706C65.9666 73.4576 66.1588 73.764 66.0887 74.0523C66.0186 74.3394 65.7111 74.5033 65.4048 74.4163L64.0346 74.0251C63.7294 73.9369 63.5361 73.6306 63.6062 73.3434Z" fill="#1D2F45"/>
<path d="M65.2454 73.0145C64.9379 73.0789 64.7592 73.3773 64.8497 73.6769L66.4934 79.1836C66.5827 79.4832 66.9072 79.6754 67.2147 79.6098C67.5222 79.5453 67.7008 79.2469 67.6104 78.9473L65.9666 73.4407C65.8773 73.1411 65.5529 72.95 65.2454 73.0145Z" fill="#1D2F45"/>
<path d="M48.6182 62.7213L55.5244 62.0136C57.7911 61.8779 59.852 63.2571 60.4568 65.3158L66.8396 87.0405C67.6468 89.7877 65.5689 92.5314 62.5448 92.7123L55.7166 93.1226C53.45 93.2583 51.3891 91.8791 50.7843 89.8204L44.4015 68.0957C43.5943 65.3486 45.5941 62.9033 48.6182 62.7213Z" fill="#DB853B"/>
<path d="M47.2109 64.9666L54.0866 64.2555C56.3533 64.1198 58.4131 65.4674 59.0156 67.4808L65.3803 88.7341C66.1852 91.4213 64.1051 94.1085 61.081 94.2905L54.2528 94.7009C51.9862 94.8366 49.9275 93.489 49.3238 91.4756L42.9591 70.2222C42.1542 67.5351 44.1869 65.1486 47.2109 64.9666Z" fill="#FA9E4E"/>
<path d="M61.8906 89.8692L47.7277 42.6822C47.3512 41.4307 47.1952 42.0751 46.7136 41.9892C46.2332 41.9033 45.7211 41.3538 46.0986 42.6053L60.1473 89.7685C60.5249 91.02 62.2682 91.1206 61.8906 89.8692Z" fill="#C26E25"/>
<path d="M53.8809 90.8413L39.596 43.1309C39.2093 41.8433 38.4982 40.715 38.0155 40.6235C37.5339 40.533 37.4559 41.512 37.8426 42.7997L52.4056 91.142C52.7923 92.4308 54.2676 92.129 53.8809 90.8413Z" fill="#C26E25"/>
<path d="M49.127 90.7679L49.3395 91.4767C49.942 93.4901 52.0018 94.8377 54.2685 94.702L61.0967 94.2917C63.9806 94.1187 66.003 91.6667 65.4875 89.1106L49.127 90.7679Z" fill="#1D2F45"/>
<path d="M58.3684 77.4403L48.1984 78.46C47.5167 78.5278 46.8271 77.9796 46.687 77.2583C46.5569 76.5902 46.9492 76.0181 47.58 75.9548L57.75 74.9351C58.4317 74.8673 59.1213 75.4156 59.2615 76.1368C59.3926 76.8038 59.0003 77.377 58.3684 77.4403Z" fill="#1D2F45"/>
<path d="M45.8709 39.822C46.6182 39.7836 47.4265 40.3172 47.6763 41.0136L47.8595 41.5246L48.0991 42.1904C48.1715 42.3905 48.055 42.5623 47.8402 42.5725L45.9738 42.6686C45.759 42.6799 45.5261 42.5262 45.4549 42.3261L45.3814 42.1226C45.2898 41.8671 44.9936 41.6715 44.7201 41.6862L40.4875 41.9033C40.0929 41.9236 39.8804 42.2379 40.0127 42.6053C40.085 42.8054 39.9686 42.9772 39.7538 42.9874L37.8873 43.0835C37.6725 43.0948 37.4397 42.9411 37.3684 42.741L37.1288 42.0751L36.9456 41.5641C36.6947 40.8677 37.0982 40.272 37.8444 40.2335L45.8709 39.822Z" fill="#363844"/>
<path fill-rule="evenodd" clip-rule="evenodd" d="M30.8986 92.5779L28.9983 94.6885C28.6501 95.1645 28.156 95.5127 27.5919 95.6834L27.0165 95.8563C26.7599 95.9332 26.5824 96.1661 26.5745 96.434C26.5643 96.8014 26.874 97.0976 27.2415 97.0705L33.6276 95.3453C33.6276 95.3453 35.0645 94.6614 33.3688 92.0364L30.8986 92.5779Z" fill="#1D2F45"/>
<path fill-rule="evenodd" clip-rule="evenodd" d="M30.8984 92.5776L29.1846 87.5503L33.0622 87.5322L33.3674 92.035L30.8984 92.5776Z" fill="#E35E4D"/>
<path fill-rule="evenodd" clip-rule="evenodd" d="M17.8158 39.8434C15.314 46.2963 18.3539 58.4752 18.3539 58.4752C18.3539 58.4752 21.0807 72.1045 21.3916 72.6267L28.8902 88.6798C29.2486 89.4474 30.1597 89.7809 30.9285 89.4259L33.1443 88.4051C33.7491 88.127 34.1018 87.4894 34.026 86.8281C33.4393 81.6628 34.0939 78.6783 28.9953 71.8433L28.5013 56.7466C28.3871 55.4929 31.0754 46.1493 29.6736 42.0366C27.3957 35.3542 17.8158 39.8434 17.8158 39.8434Z" fill="#3D608A"/>
<path fill-rule="evenodd" clip-rule="evenodd" d="M27.8329 14.4457C31.5692 15.522 32.4669 16.9136 36.1138 22.8634C36.7842 23.9578 42.552 29.9347 39.2385 31.9481L35.6628 31.6237C33.3588 28.3848 32.0949 26.7829 30.8909 25.6354C28.5203 23.3756 27.3016 24.2291 26.0445 21.82C21.319 12.7647 27.8329 14.4457 27.8329 14.4457Z" fill="#EB733B"/>
<path fill-rule="evenodd" clip-rule="evenodd" d="M41.8163 38.8113C41.8163 38.8113 45.6171 40.637 44.1316 42.612C42.6472 44.587 39.7283 42.6923 39.5474 41.4736C39.3688 40.2561 41.8163 38.8113 41.8163 38.8113Z" fill="#EB733B"/>
<path fill-rule="evenodd" clip-rule="evenodd" d="M42.5986 41.3549C42.5986 41.3549 41.0803 35.2197 40.5343 30.8582C39.9657 26.3181 34.4466 29.4745 35.2029 30.666C35.8405 31.6699 39.5485 41.4736 39.5485 41.4736L42.5986 41.3549Z" fill="#EB733B"/>
<path d="M26.0302 44.3574C26.0302 44.3574 25.7307 54.4629 25.6391 56.1485C25.5475 57.8341 25.0094 69.892 26.1591 72.084C27.3088 74.2761 32.4255 87.8217 32.4255 87.8217" stroke="#FAEEE6" stroke-width="0.388145" stroke-miterlimit="10" stroke-linecap="round" stroke-linejoin="round"/>
<path d="M16.7285 47.5896L16.9467 50.2938" stroke="#733F2F" stroke-width="0.388145" stroke-miterlimit="10" stroke-linecap="round" stroke-linejoin="round"/>
<path fill-rule="evenodd" clip-rule="evenodd" d="M5.52822 28.3835L8.83153 23.8547L5.68988 18.9348L2.81163 23.3483C1.41773 24.9796 0.497502 26.9614 0.150439 29.0788L0.135742 29.1658L5.52822 28.3835Z" fill="#EB733B"/>
<path fill-rule="evenodd" clip-rule="evenodd" d="M10.562 12.551L16.5106 10.9649L18.1827 10.7908L24.8402 12.092C27.1305 12.8426 28.5018 15.1828 28.0383 17.5478L27.888 24.7671C29.1835 31.7129 29.595 37.7158 30.184 43.3932C24.2444 45.1489 12.321 47.5105 8.85605 43.7923C7.5831 32.4421 7.32761 20.4396 10.562 12.551Z" fill="#5AA4E0"/>
<path fill-rule="evenodd" clip-rule="evenodd" d="M18.7305 45.6326C18.7305 45.6326 29.5844 32.9213 27.3415 21.1008L29.3289 30.7711C29.3289 30.7711 30.8223 37.1437 31.6419 42.5566C31.643 42.5566 27.2578 45.4529 18.7305 45.6326Z" fill="#2D84CC"/>
<path fill-rule="evenodd" clip-rule="evenodd" d="M18.0002 9.95993C18.0002 9.95993 21.031 9.15728 20.5302 6.22137C20.0294 3.28547 16.6865 3.82246 16.6865 3.82246L18.0002 9.95993Z" fill="#3D2213"/>
<path fill-rule="evenodd" clip-rule="evenodd" d="M14.542 8.17605C14.542 8.17605 15.2576 10.6417 15.8511 12.6845C16.0094 13.2282 16.448 13.6454 16.9997 13.7743C17.5514 13.9032 18.1302 13.7257 18.5134 13.3085C18.6389 13.1717 18.761 13.0383 18.8763 12.9128C19.402 12.3408 19.5501 11.5167 19.2573 10.7977C18.5066 8.95384 17.1387 5.59399 17.1387 5.59399L14.542 8.17605Z" fill="#EB733B"/>
<path fill-rule="evenodd" clip-rule="evenodd" d="M15.1475 10.264L15.4911 11.4454L16.6714 9.77222L15.1475 10.264Z" fill="#A12A2A"/>
<path fill-rule="evenodd" clip-rule="evenodd" d="M13.3043 3.13965C13.3043 3.13965 11.6503 3.92874 12.3965 5.74997C13.1426 7.5712 14.5049 6.83864 14.5049 6.83864L13.3043 3.13965Z" fill="#3D2213"/>
<path fill-rule="evenodd" clip-rule="evenodd" d="M18.4625 4.66131C18.4817 3.90953 17.887 3.28436 17.1353 3.26514C16.3326 3.24479 15.3197 3.21879 14.517 3.19844C13.7652 3.17922 13.2554 3.78517 13.1209 4.52565C12.9615 5.39952 13.0508 7.22302 13.2757 8.53778C13.4035 9.27939 13.9699 9.97465 14.7216 9.99387C15.5243 10.0142 17.9503 9.31105 18.2194 7.88097C18.4229 6.7923 18.4342 5.7692 18.4625 4.66131Z" fill="#EB733B"/>
<path fill-rule="evenodd" clip-rule="evenodd" d="M20.3516 6.58764C20.3516 6.58764 20.3674 3.68112 19.1024 2.75638C17.4021 1.51509 15.2677 0.996192 13.3041 3.13962C13.3041 3.13962 13.2317 3.4132 13.4567 3.67321C14.0965 4.41482 17.6621 3.05596 17.9414 6.40223C18.0047 7.16306 19.4913 6.66564 20.3516 6.58764Z" fill="#3D2213"/>
<path fill-rule="evenodd" clip-rule="evenodd" d="M19.2228 7.67062C18.9967 8.24604 18.428 8.56145 17.9509 8.37379C17.475 8.18726 17.2715 7.56888 17.4976 6.99345C17.7237 6.41803 18.2924 6.10262 18.7694 6.29028C19.2454 6.47681 19.4489 7.0952 19.2228 7.67062Z" fill="#EB733B"/>
<path fill-rule="evenodd" clip-rule="evenodd" d="M14.0889 8.20972L15.3957 8.2165C15.3957 8.2165 15.3663 9.10846 14.7378 9.03046C14.1092 8.95358 14.0889 8.20972 14.0889 8.20972Z" fill="white"/>
<path fill-rule="evenodd" clip-rule="evenodd" d="M12.6928 5.12014C12.6091 5.17893 11.3418 2.14919 14.9538 0.486231C18.5657 -1.17673 14.7684 1.8417 16.6145 3.25143C18.4606 4.66116 17.8908 6.23821 17.8908 6.23821C17.8908 6.23821 16.4958 2.45217 12.6928 5.12014Z" fill="#3D2213"/>
<path fill-rule="evenodd" clip-rule="evenodd" d="M15.6133 1.33868C15.6133 1.33868 16.2758 0.786996 17.6979 0.626465C17.6979 0.626465 16.5912 2.08368 16.7166 2.44657C16.841 2.81172 15.6133 1.33868 15.6133 1.33868Z" fill="#3D2213"/>
<path fill-rule="evenodd" clip-rule="evenodd" d="M24.8401 12.0918C24.8401 12.0918 29.1145 14.1063 31.9645 16.4431C34.8145 18.7798 36.2852 20.5581 37.1071 20.5061C37.9369 22.8801 33.9824 26.3451 31.9362 28.7915L22.4547 22.2391C22.4559 22.2391 21.4588 15.3081 24.8401 12.0918Z" fill="#5AA4E0"/>
<path d="M26.855 23.9566C26.855 23.9566 24.5646 20.5187 24.248 19.7251" stroke="#206BA8" stroke-width="0.339149" stroke-miterlimit="10" stroke-linecap="round" stroke-linejoin="round"/>
<path d="M10.9226 18.4624C10.9226 18.4624 14.5391 17.1883 21.1909 18.5348L21.1276 20.8545C21.1276 20.8545 15.231 19.5115 10.6016 20.9178L10.9226 18.4624Z" fill="#FDEADA"/>
<path fill-rule="evenodd" clip-rule="evenodd" d="M10.5621 12.551C10.5621 12.551 8.03881 13.1106 3.77344 20.7618C3.77344 20.7618 7.89297 27.9416 10.1121 26.9434C12.3313 25.9452 12.8265 24.4936 12.1787 23.6796C11.5309 22.8657 10.1969 20.6974 9.92674 20.4464C9.65655 20.1966 10.5621 12.551 10.5621 12.551Z" fill="#5AA4E0"/>
<path d="M8.42188 24.7469C8.42188 24.7469 8.53379 21.0309 10.537 17.8904" stroke="#C47E41" stroke-width="0.333113" stroke-miterlimit="10" stroke-linecap="round" stroke-linejoin="round"/>
<path fill-rule="evenodd" clip-rule="evenodd" d="M12.6456 25.4362L10.6254 25.4328C9.80469 25.4317 8.94212 24.8167 8.70698 24.0672L6.89479 18.2847C6.65964 17.5352 7.13898 16.9225 7.95859 16.9236L9.97879 16.927C10.7995 16.9281 11.6621 17.5431 11.8972 18.2926L13.7094 24.0762C13.9446 24.8258 13.4664 25.4374 12.6456 25.4362Z" fill="#3D2213"/>
<path fill-rule="evenodd" clip-rule="evenodd" d="M5.70508 22.2405C5.70508 22.2405 8.60028 19.1 10.0417 20.8262C11.4831 22.5525 8.78908 24.8723 7.56814 24.8112C6.34833 24.7502 5.70508 22.2405 5.70508 22.2405Z" fill="#EB733B"/>
<path fill-rule="evenodd" clip-rule="evenodd" d="M5.70515 22.2403C5.70515 22.2403 -0.735297 28.3472 0.069618 30.2092C0.873402 32.0711 3.38876 33.101 7.64395 25.4916C11.8991 17.8822 5.70515 22.2403 5.70515 22.2403Z" fill="#EB733B"/>
<path d="M3.92211 24.0447L1.3457 27.0778" stroke="#D16634" stroke-width="0.339149" stroke-miterlimit="10" stroke-linecap="round" stroke-linejoin="round"/>
</g>
<defs>
<clipPath id="clip0_93_586">
<rect width="76" height="97.952" fill="white"/>
</clipPath>
</defs>
</svg>
